<svg xmlns="http://www.w3.org/2000/svg" xmlns:xlink="http://www.w3.org/1999/xlink"><defs><filter id="filter0_b" x="-3" y="-3" width="38" height="38" filterUnits="userSpaceOnUse" color-interpolation-filters="sRGB"><feFlood flood-opacity="0" result="BackgroundImageFix"/><feGaussianBlur in="BackgroundImage" stdDeviation="1.5"/><feComposite in2="SourceAlpha" operator="in" result="effect1_backgroundBlur"/><feBlend in="SourceGraphic" in2="effect1_backgroundBlur" result="shape"/></filter><clipPath id="clip0"><path fill="#fff" transform="translate(3.117 2.5)" d="M0 0h35.767v37H0z"/></clipPath><filter id="filter0_b" x="-3" y="-3" width="38" height="38" filterUnits="userSpaceOnUse" color-interpolation-filters="sRGB"><feFlood flood-opacity="0" result="BackgroundImageFix"/><feGaussianBlur in="BackgroundImage" stdDeviation="1.5"/><feComposite in2="SourceAlpha" operator="in" result="effect1_backgroundBlur"/><feBlend in="SourceGraphic" in2="effect1_backgroundBlur" result="shape"/></filter><filter id="filter0_b" x="-3" y="-3" width="38" height="38" filterUnits="userSpaceOnUse" color-interpolation-filters="sRGB"><feFlood flood-opacity="0" result="BackgroundImageFix"/><feGaussianBlur in="BackgroundImage" stdDeviation="1.5"/><feComposite in2="SourceAlpha" operator="in" result="effect1_backgroundBlur"/><feBlend in="SourceGraphic" in2="effect1_backgroundBlur" result="shape"/></filter></defs><symbol id="icon__arrow" viewBox="0 0 10 6"><path d="M.1.644l.5-.51A.314.314 0 01.832.032c.087 0 .164.034.23.102L5 4.142 8.938.134a.314.314 0 01.23-.102c.087 0 .164.034.23.102l.502.51a.325.325 0 010 .47L5.23 5.865a.314.314 0 01-.23.102.314.314 0 01-.23-.102L.1 1.113a.325.325 0 010-.469z"/></symbol><symbol id="icon__checkbox" viewBox="0 0 8 6"><path d="M7.712.335a1.01 1.01 0 00-.696-.276.997.997 0 00-.697.276l-3.448 3.32-1.19-1.147a.999.999 0 00-.696-.277.998.998 0 00-.696.278.925.925 0 000 1.34l1.886 1.817a.997.997 0 00.696.275.999.999 0 00.697-.275l4.144-3.99a.925.925 0 000-1.341z" fill="#1C5BFF"/></symbol><symbol id="icon__cross" viewBox="0 0 16 16"><rect width="18.762" height="2.345" rx="1.173" transform="scale(-1.00504 .99494) rotate(45 -7.58 -16.326)"/><rect width="18.762" height="2.345" rx="1.173" transform="scale(1.00504 .99494) rotate(45 .38 2.892)"/></symbol><symbol id="icon__delivery" viewBox="0 0 42 42"><path d="M8.648 27.503c-1.075 0-1.95.875-1.95 1.95 0 1.076.875 1.95 1.95 1.95s1.95-.874 1.95-1.95c0-1.075-.875-1.95-1.95-1.95zm0 2.6a.65.65 0 11.002-1.301.65.65 0 01-.002 1.301zM33.352 27.503c-1.075 0-1.95.875-1.95 1.95 0 1.076.874 1.95 1.95 1.95 1.075 0 1.95-.874 1.95-1.95 0-1.075-.875-1.95-1.95-1.95zm0 2.6a.65.65 0 11.001-1.302.65.65 0 01-.001 1.302z" fill="#1C5BFF"/><path d="M41.153 27.503v-4.445a2.597 2.597 0 00-1.778-2.467l-2.281-.76-1.998-4.996a2.588 2.588 0 00-2.414-1.634H26.85V9.95C26.85 8.874 25.976 8 24.9 8H2.797c-1.075 0-1.95.875-1.95 1.95v17.558a.732.732 0 00-.65.726v1.22c0 1.075.875 1.95 1.95 1.95h2.39c1.647 3.457 6.57 3.466 8.222 0H29.24c1.647 3.457 6.57 3.466 8.221 0h2.39c1.076 0 1.951-.875 1.951-1.95v-1.301a.65.65 0 00-.65-.65zM32.682 14.5c.534 0 1.008.32 1.207.817l2.11 5.275a.65.65 0 00.398.376l2.567.855c.532.177.889.673.889 1.234v1.845h-.65a.65.65 0 000 1.3h.65v1.3h-2.39c-1.648-3.457-6.57-3.467-8.222 0h-2.39V14.501h5.83zm-29.885-5.2h22.104a.65.65 0 01.65.65v17.552H12.759c-1.647-3.457-6.57-3.467-8.221 0h-2.39V9.95a.65.65 0 01.65-.65zm-.65 20.802a.65.65 0 01-.65-.65v-.65h2.648a4.506 4.506 0 000 1.3H2.147zm6.501 2.6a3.255 3.255 0 01-3.012-2.03.646.646 0 00-.095-.266 3.25 3.25 0 010-1.907.645.645 0 00.095-.266 3.255 3.255 0 013.012-2.031c1.361 0 2.529.84 3.012 2.03a.645.645 0 00.096.267c.19.62.19 1.286 0 1.907a.645.645 0 00-.096.266 3.255 3.255 0 01-3.012 2.03zm4.504-2.6a4.507 4.507 0 000-1.3h15.696a4.503 4.503 0 000 1.3H13.152zm20.2 2.6a3.255 3.255 0 01-3.012-2.03.645.645 0 00-.096-.266 3.25 3.25 0 010-1.907.645.645 0 00.096-.266 3.255 3.255 0 013.012-2.031c1.36 0 2.529.84 3.012 2.03a.648.648 0 00.095.267c.19.62.191 1.286 0 1.907a.647.647 0 00-.095.266 3.255 3.255 0 01-3.012 2.03zm7.15-3.25a.65.65 0 01-.65.65h-1.997a4.507 4.507 0 000-1.3h2.648v.65z" fill="#1C5BFF"/><path d="M28.801 21.002h4.55a.65.65 0 00.618-.856l-1.3-3.9a.65.65 0 00-.617-.445h-3.25a.65.65 0 00-.65.65v3.9c0 .36.29.65.65.65zm.65-3.9h2.132l.867 2.6h-2.999v-2.6zM30.101 22.302h-1.3a.65.65 0 000 1.3h1.3a.65.65 0 000-1.3zM6.048 21.652h5.85v1.3c0 .36.292.65.65.65h9.102a.65.65 0 00.65-.65v-9.101a.65.65 0 00-.65-.65H12.55a.65.65 0 00-.65.65v1.3h-1.95a.65.65 0 000 1.3h1.95v1.3h-3.25a.65.65 0 100 1.3h3.25v1.3H6.048a.65.65 0 000 1.301zm11.702-7.151v1.3h-1.3v-1.3h1.3zm-4.551 0h1.95v1.95c0 .36.291.65.65.65h2.6a.65.65 0 00.65-.65v-1.95H21v7.801h-7.801v-7.801z" fill="#1C5BFF"/></symbol><symbol id="icon__fb" viewBox="0 0 32 32"><g filter="url(#filter0_b)"><circle cx="16" cy="16" r="16" fill="#F3F3F3" fill-opacity=".6"/></g><path d="M17.324 13.207c.02-.02.115-.086.49-.086h1.227c.399 0 .724-.282.724-.629v-1.861c0-.346-.325-.628-.723-.628L17.219 10c-1.125 0-2.081.322-2.765.932-.682.606-1.042 1.453-1.042 2.449v1.004h-1.394c-.4 0-.724.282-.724.628v2.005c0 .347.325.628.724.628h1.394v4.68c0 .346.325.628.724.628h2.39c.4 0 .724-.282.724-.628v-4.68h1.704c.4 0 .724-.281.724-.628l.001-2.005c0-.227-.142-.438-.372-.55a.825.825 0 00-.358-.078H17.25v-.793c0-.259.04-.353.074-.386z" fill="#1C5BFF"/></symbol><symbol id="icon__line" viewBox="0 0 16 16"><path d="M3.518 12.01a.55.55 0 00-.373.924.511.511 0 00.747 0 .55.55 0 00-.374-.924z" fill="#fff"/><path d="M11.931 0l-.825.806 2.162 2.182a.275.275 0 010 .413.295.295 0 01-.216.078.275.275 0 01-.197-.079l-2.182-2.162-1.1 1.101 1.415 1.396a.315.315 0 010 .432.275.275 0 01-.197.079.295.295 0 01-.216-.079L9.16 2.752l-1.101 1.1 2.182 2.163a.354.354 0 010 .432.334.334 0 01-.433 0L7.646 4.265l-1.1 1.101L7.96 6.781a.295.295 0 010 .413.295.295 0 01-.433 0L6.133 5.779l-1.101 1.1 2.162 2.182a.275.275 0 010 .413.295.295 0 01-.216.079.275.275 0 01-.197-.079L4.6 7.312l-1.101 1.1 1.415 1.396a.314.314 0 010 .433.275.275 0 01-.197.078.295.295 0 01-.216-.078L3.086 8.826 0 11.93 4.069 16 16 4.069 11.931 0zM4.325 13.346a1.14 1.14 0 11-1.613-1.611 1.14 1.14 0 011.613 1.61z" fill="#fff"/></symbol><symbol id="icon__list" viewBox="0 0 42 42"><path d="M34.438 4.965h-7.452v-.558A1.91 1.91 0 0025.077 2.5h-8.154a1.91 1.91 0 00-1.907 1.907v.558H7.562a.544.544 0 00-.544.544v33.446a.544.544 0 00.544.545h26.876a.544.544 0 00.544-.545V5.51a.542.542 0 00-.544-.544zM30.66 9.123v26.072H11.34V9.123h19.32zM16.104 4.407a.82.82 0 01.82-.818h8.153a.82.82 0 01.818.818v3.627h-9.791V4.407zm17.79 34.004H8.106V6.054h6.907v1.98h-4.219a.545.545 0 00-.544.545v27.16a.545.545 0 00.544.546h20.41a.546.546 0 00.544-.545V8.579a.544.544 0 00-.544-.545h-4.22v-1.98h6.908V38.41z" fill="#1C5BFF"/><path d="M14.045 25.151h4.895a.544.544 0 00.544-.544v-4.071l1.097-1.097a.544.544 0 00-.77-.77l-.583.582a.54.54 0 00-.288-.084h-4.895a.545.545 0 00-.544.545v4.895a.545.545 0 00.544.544zm.544-4.895h3.634l-1.727 1.727-.434-.434a.544.544 0 00-.77.77l.819.82a.545.545 0 00.77 0l1.514-1.514v2.437H14.59v-3.806zM14.045 33.165h4.895a.546.546 0 00.544-.544V28.55l1.097-1.097a.545.545 0 10-.77-.77l-.583.582a.54.54 0 00-.288-.084h-4.895a.545.545 0 00-.544.545v4.895a.545.545 0 00.544.544zm.544-4.895h3.634l-1.727 1.727-.434-.434a.544.544 0 00-.77.77l.819.82a.545.545 0 00.77 0l1.514-1.514v2.437H14.59V28.27zM14.045 17.137h4.895a.544.544 0 00.544-.544v-4.071l1.097-1.097a.545.545 0 00-.77-.77l-.583.583a.54.54 0 00-.288-.085h-4.895a.545.545 0 00-.544.545v4.895a.545.545 0 00.544.544zm.544-4.895h3.634l-1.727 1.727-.434-.434a.544.544 0 10-.77.77l.819.82a.545.545 0 00.77 0l1.514-1.514v2.437H14.59v-3.805zM21.514 14.69h6.441a.544.544 0 100-1.09h-6.44a.545.545 0 000 1.09zM21.514 22.704h6.441a.544.544 0 100-1.09h-6.44a.545.545 0 000 1.09zM21.514 30.718h6.441a.544.544 0 100-1.09h-6.44a.545.545 0 100 1.09z" fill="#1C5BFF"/></symbol><symbol id="icon__logo" viewBox="0 0 58 14"><path d="M3.583.53h3.66L5.247 10.568h6.174l-.592 2.902H.995L3.583.53zM19.067 13.73c-1.306 0-2.446-.241-3.42-.722-.961-.48-1.707-1.152-2.237-2.015-.517-.863-.776-1.848-.776-2.958 0-1.479.339-2.81 1.017-3.993a7.295 7.295 0 012.865-2.773C17.75.604 19.147.271 20.713.271c1.306 0 2.44.24 3.401.721.974.48 1.72 1.152 2.237 2.015.53.863.795 1.849.795 2.958 0 1.479-.345 2.81-1.036 3.993-.677 1.183-1.632 2.107-2.865 2.773-1.22.665-2.613.998-4.178.998zm.314-3.033c.814 0 1.529-.203 2.145-.61a4.048 4.048 0 001.423-1.626c.333-.69.5-1.449.5-2.274 0-.875-.272-1.572-.814-2.09-.53-.53-1.276-.794-2.237-.794-.813 0-1.528.203-2.144.61a4.021 4.021 0 00-1.424 1.645c-.332.678-.499 1.43-.499 2.255 0 .876.265 1.578.795 2.108.542.518 1.294.776 2.255.776zM37.733 6.723h3.235l-1.09 5.453c-.666.506-1.443.894-2.33 1.165-.875.259-1.8.388-2.773.388-1.306 0-2.452-.234-3.438-.702-.974-.481-1.732-1.153-2.274-2.015-.53-.863-.795-1.855-.795-2.977 0-1.49.345-2.822 1.035-3.993.69-1.183 1.658-2.107 2.903-2.773C33.45.604 34.88.271 36.494.271c2.564 0 4.443.795 5.639 2.385l-2.625 2.07c-.42-.517-.881-.88-1.387-1.09-.505-.222-1.103-.333-1.793-.333-.875 0-1.645.197-2.31.591a3.925 3.925 0 00-1.517 1.59c-.357.678-.536 1.448-.536 2.311 0 .887.29 1.596.87 2.126.578.518 1.392.776 2.44.776.628 0 1.201-.104 1.719-.314l.74-3.66zM48.927 13.73c-1.306 0-2.446-.241-3.42-.722-.961-.48-1.707-1.152-2.237-2.015-.517-.863-.776-1.848-.776-2.958 0-1.479.339-2.81 1.017-3.993a7.296 7.296 0 012.865-2.773C47.61.604 49.007.271 50.573.271c1.306 0 2.44.24 3.401.721.974.48 1.72 1.152 2.237 2.015.53.863.795 1.849.795 2.958 0 1.479-.345 2.81-1.035 3.993-.678 1.183-1.633 2.107-2.866 2.773-1.22.665-2.613.998-4.178.998zm.315-3.033c.813 0 1.528-.203 2.144-.61a4.048 4.048 0 001.423-1.626c.333-.69.5-1.449.5-2.274 0-.875-.272-1.572-.814-2.09-.53-.53-1.276-.794-2.237-.794-.813 0-1.528.203-2.144.61a4.021 4.021 0 00-1.424 1.645c-.332.678-.499 1.43-.499 2.255 0 .876.265 1.578.795 2.108.542.518 1.294.776 2.256.776z"/></symbol><symbol id="icon__mask" viewBox="0 0 16 16"><path d="M15.498 4.245a.944.944 0 00-.988.026l-.79.505a37.285 37.285 0 01-2.369-.974c-.645-.292-1.115-.526-1.493-.714-.832-.414-1.211-.604-1.864-.587-.638.016-1.008.219-1.621.555a20.337 20.337 0 01-4.086 1.725l-.797-.51a.946.946 0 00-.988-.026.972.972 0 00-.369.364A1.001 1.001 0 000 5.116v3.012c0 .17.041.336.121.484.08.148.196.272.337.361L2 9.96v.263a1.3 1.3 0 00.448.981C5.106 13.474 7.971 13.5 8 13.5c2.52 0 4.426-1.255 5.581-2.307a1.28 1.28 0 00.419-.955v-.177l1.542-.987a.981.981 0 00.337-.361A1.01 1.01 0 0016 8.23V5.116a1 1 0 00-.133-.507.971.971 0 00-.369-.364zM3.836 8.91C5.17 9.41 6.58 9.664 8 9.663c1.42 0 2.83-.254 4.164-.752l.172.48a12.374 12.374 0 01-8.671 0l.17-.48zM3.664 7.09l.172-.48C5.17 7.106 6.58 7.361 8 7.36c1.42 0 2.83-.254 4.164-.752l.172.48a12.374 12.374 0 01-8.671 0zM.723 8.54A.477.477 0 01.5 8.127V5.116a.493.493 0 01.244-.424.465.465 0 01.48.013L2 5.201v4.155L.723 8.54zM15.5 8.23a.491.491 0 01-.223.41L14 9.458V5.201l.775-.496a.466.466 0 01.66.165c.042.075.065.16.065.246V8.23z" fill="#fff"/></symbol><symbol id="icon__pay" viewBox="0 0 42 42"><path d="M16.923 17.469a.579.579 0 100-1.158.579.579 0 000 1.158zM31.395 18.048a.579.579 0 100-1.158.579.579 0 000 1.158zM25.317 4.27a6.228 6.228 0 00-4.342-1.737c-3.473 0-6.31 2.837-6.31 6.31 0 3.416 2.663 6.136 6.02 6.31a6.332 6.332 0 004.342 1.737c3.474 0 6.31-2.837 6.31-6.31 0-3.358-2.663-6.137-6.02-6.31zm-4.4 9.783a5.14 5.14 0 01-5.036-5.152c-.058-2.837 2.258-5.152 5.094-5.152 1.39 0 2.605.52 3.531 1.447a.452.452 0 00.232.231 5.055 5.055 0 011.39 3.474 5.164 5.164 0 01-5.153 5.152h-.058zm4.11 1.679c-.926 0-1.852-.232-2.605-.695 2.78-.637 4.863-3.184 4.863-6.136 0-1.158-.347-2.258-.868-3.184 2.142.579 3.763 2.547 3.763 4.863a5.164 5.164 0 01-5.153 5.152z" fill="#1C5BFF"/><path d="M39.153 16.948c-.174-.116-.463-.058-.637.058l-8.452 6.83-6.6-.52c.29-.232.521-.521.81-.81.695-.638 1.39-1.274 1.795-1.796.58-.636.695-1.563.29-2.2-.29-.52-.926-.81-1.563-.81-.463 0-.869.116-1.216.405l-7.468 4.574h-.752c-1.39 0-2.663.52-3.705 1.39l-5.558 4.92a.62.62 0 00-.058.81c.232.232.637.29.869.058l5.557-4.92c.81-.695 1.853-1.1 2.895-1.1l4.515.347 2.258.232h.058c.058 0 .116 0 .173-.058l7.816.636c.115 0 .29-.058.405-.115l7.757-6.195v2.026l-8.336 7.758H16.923a.526.526 0 00-.463.231l-7.526 9.842c-.174.231-.174.637.116.81.115.058.231.116.347.116a.527.527 0 00.463-.231l7.352-9.61h13.026c.173 0 .289-.058.405-.174l8.683-8.105a.625.625 0 00.174-.405V17.47c0-.232-.116-.406-.347-.521zM21.9 23.2l-1.968-.174-1.852-.174 6.078-3.704s.058 0 .058-.058c.232-.174.405-.174.52-.174.233 0 .464.116.58.232.116.173.116.52-.174.868-.347.463-1.042 1.1-1.679 1.679-.579.52-1.157 1.042-1.563 1.505zM5.229 30.552a.62.62 0 00-.81-.058l-1.737 1.563a.62.62 0 00-.058.81c.116.174.231.232.405.232.116 0 .29-.058.405-.174l1.737-1.563a.62.62 0 00.058-.81zM20.396 16.31c-.347 0-.579.232-.579.58v1.736c0 .348.232.58.579.58s.579-.232.579-.58V16.89c0-.348-.232-.58-.579-.58z" fill="#1C5BFF"/><path d="M28.5 16.89c-.347 0-.578.231-.578.579v1.736c0 .348.231.58.579.58.347 0 .579-.232.579-.58V17.47c0-.348-.232-.58-.58-.58zM16.923 18.048c-.348 0-.58.231-.58.579v1.736c0 .348.232.58.58.58.347 0 .579-.233.579-.58v-1.736c0-.348-.232-.58-.58-.58zM31.395 18.627c-.347 0-.579.231-.579.578v1.737c0 .347.232.579.58.579.347 0 .578-.232.578-.579v-1.737c0-.347-.231-.578-.579-.578zM22.133 8.09c.347 0 .579-.231.579-.578v-.116c0-.695-.521-1.216-1.158-1.39v-.115c0-.348-.232-.58-.579-.58s-.579.232-.579.58v.115c-.752.058-1.331.637-1.331 1.39 0 .463.231.868.636 1.158l1.737 1.042c.058.057.116.115.116.231v.29c0 .115-.174.347-.29.347h-.752c-.116 0-.116-.232-.116-.347V9.71c0-.347-.231-.579-.579-.579-.347 0-.579.232-.579.58v.405c0 .81.406 1.389 1.158 1.447v.116c0 .347.232.579.58.579.346 0 .578-.232.578-.58v-.115a1.43 1.43 0 001.158-1.39v-.289c0-.463-.232-.868-.637-1.158l-1.737-1.1a.439.439 0 01-.116-.231c0-.116.116-.29.232-.29h.753c.173-.058.347.174.347.29v.116c0 .347.232.578.579.578z" fill="#1C5BFF"/></symbol><symbol id="icon__people" viewBox="0 0 16 16"><path d="M8 9.058c1.044 0 3.5-1.257 3.5-4.268 0-.42-.01-.826-.045-1.21-.057-.754-.212-1.423-.597-1.935C10.365.947 9.501.522 8 .522c-1.501 0-2.365.425-2.858 1.122-.385.513-.54 1.182-.597 1.937-.034.383-.045.789-.045 1.209C4.5 7.8 6.956 9.058 8 9.058zM5.021 4.137c.04.088.212.427.477.459.305.036.81-1.08 2.502-1.082 1.691.002 2.197 1.118 2.502 1.082.265-.032.436-.371.477-.46.008.217.011.436.011.654 0 1.472-.65 2.384-1.195 2.89-.687.637-1.45.868-1.795.868s-1.108-.231-1.795-.868C5.66 7.174 5.01 6.262 5.01 4.79c0-.218.003-.437.011-.653z" fill="#fff"/><path d="M13.213 10.384c.737.51 1.105 1.94 1.284 3.051a.245.245 0 01-.011.12c-.025.071-3.835 1.923-3.835 1.923 0-.066-5.166-.155-5.303 0 0 0-3.81-1.852-3.834-1.922a.245.245 0 01-.01-.121c.065-.41.436-2.48 1.285-3.052.502-.338 2.281-1.296 3.023-1.693a.245.245 0 01.267.024c.393.308.824.516 1.28.618.08.018.147.075.176.152L8 10.71l.465-1.225a.245.245 0 01.176-.152c.456-.102.887-.31 1.28-.618a.245.245 0 01.267-.024l.014.008c.75.4 2.507 1.34 3.01 1.686z" fill="#fff"/><path d="M9.749 14.552c-.046-.028.024.015 0 0zM6.251 14.552c-.024.015.046-.028 0 0z" fill="#fff"/></symbol><symbol id="icon__protect" viewBox="0 0 42 42"><g clip-path="url(#clip0)" fill="#1C5BFF"><path d="M35.057 4.856a.675.675 0 00-.657-.69c-.096-.001-.19.02-.277.06C29.95 6.235 25.04 5.632 21.437 2.67a.646.646 0 00-.874 0c-3.618 2.925-8.507 3.524-12.686 1.556a.654.654 0 00-.876.344.706.706 0 00-.058.286c0 .144.047 14.275 0 18.955-.026 2.502 5.618 10.622 13.72 15.597a.644.644 0 00.662 0c8.114-4.975 13.758-13.096 13.732-15.597-.046-4.68 0-18.81 0-18.955zm-1.325 18.962c0 1.508-4.637 9.08-12.732 14.199C12.88 32.905 8.255 25.333 8.268 23.825c.04-3.954.013-14.596 0-17.954 4.273 1.617 9.044.934 12.732-1.823 3.688 2.757 8.459 3.44 12.732 1.823 0 3.35-.033 14 0 17.947z"/><path d="M31.599 9.023a.675.675 0 00-.657-.69c-.096-.001-.19.02-.277.06-3.028 1.472-6.601 1.048-9.228-1.097a.646.646 0 00-.874 0c-2.627 2.12-6.176 2.553-9.208 1.124a.654.654 0 00-.876.344.705.705 0 00-.058.286c0 .103.033 10.567 0 14.035-.02 1.884 4.193 7.983 10.241 11.697a.643.643 0 00.663 0c6.06-3.714 10.274-9.813 10.274-11.724-.033-3.468 0-13.925 0-14.035zm-1.325 14.035c0 .966-3.312 6.537-9.274 10.279-5.915-3.763-9.274-9.334-9.274-10.28.046-2.795 0-10.279 0-13.02 3.122 1.136 6.584.625 9.274-1.37 2.69 1.995 6.152 2.506 9.274 1.37v13.02z"/></g><path d="M23.988 16.9l-3.756 3.555-1.603-1.518a.81.81 0 00-1.101 0 .71.71 0 000 1.042l2.153 2.039a.799.799 0 00.55.215c.2 0 .399-.072.55-.215l4.308-4.077a.71.71 0 000-1.042.81.81 0 00-1.1 0z" fill="#1C5BFF"/></symbol><symbol id="icon__sell" viewBox="0 0 42 42"><path d="M30.915 25.02h0l-9.524 9.783.072.07-.072-.07a.549.549 0 01-.782 0l-9.524-9.782h0a.1.1 0 01.076-.17h1.709c.844 0 1.534-.674 1.534-1.506V11.723h13.192v11.622c0 .832.69 1.506 1.534 1.506h1.709a.1.1 0 01.076.17zm-.076-1.306H29.13a.374.374 0 01-.378-.37V7.404c0-.833-.69-1.507-1.535-1.507H14.783c-.845 0-1.535.674-1.535 1.507v15.942a.374.374 0 01-.378.369H11.16c-1.112 0-1.673 1.312-.911 2.094l9.524 9.782a1.72 1.72 0 002.452 0l9.524-9.782c.762-.782.201-2.094-.911-2.094zM14.404 9.847h13.192v.738H14.404v-.738zm.379-2.813h12.434c.21 0 .379.167.379.369v1.306H14.404V7.403c0-.202.168-.37.379-.37z" fill="#1C5BFF" stroke="#1C5BFF" stroke-width=".2"/><path d="M18.609 18.287c1.108 0 2.013-.884 2.013-1.976 0-1.09-.905-1.975-2.013-1.975-1.108 0-2.013.884-2.013 1.975 0 1.092.905 1.976 2.013 1.976zm0-2.813c.474 0 .856.377.856.837 0 .46-.382.838-.856.838a.848.848 0 01-.857-.838c0-.46.383-.837.857-.837zM23.391 19.025c-1.108 0-2.013.884-2.013 1.975 0 1.091.905 1.976 2.013 1.976 1.109 0 2.013-.884 2.013-1.976 0-1.091-.904-1.975-2.013-1.975zm0 2.813a.848.848 0 01-.856-.838c0-.46.382-.837.856-.837s.857.377.857.837c0 .46-.383.838-.857.838zM24.418 14.502h0a.585.585 0 01.816 0h0a.562.562 0 010 .806l-7.652 7.502a.585.585 0 01-.816 0s0 0 0 0l.07-.072a.462.462 0 010-.663l7.582-7.573zm0 0l-7.652 7.502 7.652-7.502z" fill="#1C5BFF" stroke="#1C5BFF" stroke-width=".2"/></symbol><symbol id="icon__slider-arrow_left" viewBox="0 0 32 32"><path d="M17.381 20.785l.516-.495a.307.307 0 00.103-.228.307.307 0 00-.103-.228l-4.052-3.892 4.052-3.892a.307.307 0 00.103-.228.307.307 0 00-.103-.228l-.516-.495a.332.332 0 00-.474 0l-4.804 4.615a.307.307 0 00-.103.228c0 .086.034.162.103.228l4.804 4.615a.332.332 0 00.474 0z" fill="#1D5BFF"/></symbol><symbol id="icon__slider-arrow_right" viewBox="0 0 32 32"><path d="M14.618 20.785l-.515-.495a.307.307 0 01-.103-.228c0-.086.034-.162.103-.228l4.052-3.892-4.052-3.892a.307.307 0 01-.103-.228c0-.086.034-.162.103-.228l.516-.495a.332.332 0 01.474 0l4.804 4.615a.307.307 0 01.103.228.307.307 0 01-.103.228l-4.804 4.615a.332.332 0 01-.475 0z" fill="#1D5BFF"/></symbol><symbol id="icon__speed" viewBox="0 0 42 42"><path d="M30.51 10.76l1.584-2.757a.548.548 0 00-.202-.748l-2.24-1.288a.548.548 0 00-.75.203L27.32 8.924a15.873 15.873 0 00-4.48-1.195V6.053h1.112a.548.548 0 00.549-.548V2.92a.548.548 0 00-.549-.548h-5.904a.548.548 0 00-.549.548v2.584a.548.548 0 00.549.548h1.112v1.674c-1.544.177-3.053.58-4.48 1.195l-1.583-2.754a.547.547 0 00-.748-.202l-2.241 1.287A.548.548 0 009.906 8l1.585 2.759a16 16 0 1019.018 0zm-.93-3.572l1.29.743-1.268 2.208a16.357 16.357 0 00-1.289-.743l1.267-2.208zM18.596 3.47h4.808v1.488h-4.808V3.469zm1.66 2.584h1.488v1.584c-.247-.011-.493-.02-.744-.02-.25 0-.497.008-.744.02V6.053zM11.13 7.931l1.29-.74 1.267 2.205c-.442.228-.872.475-1.289.743L11.13 7.93zM21 38.521A14.903 14.903 0 1135.904 23.62 14.92 14.92 0 0121 38.522z" fill="#1C5BFF"/><path d="M31.78 29.787a12.38 12.38 0 00-.034-12.396.512.512 0 00-.025-.055.502.502 0 00-.032-.042 12.513 12.513 0 00-4.419-4.396.482.482 0 00-.047-.035.525.525 0 00-.055-.024 12.38 12.38 0 00-12.395.033.574.574 0 00-.056.026.508.508 0 00-.041.031 12.515 12.515 0 00-4.397 4.42.296.296 0 00-.059.101 12.38 12.38 0 00.034 12.396.527.527 0 00.025.055c.007.012.018.02.025.031a12.514 12.514 0 004.425 4.406.527.527 0 00.048.035c.013.008.028.011.043.018a12.383 12.383 0 0012.421-.035c.014-.007.028-.01.041-.018.014-.007.028-.02.042-.03a12.516 12.516 0 004.404-4.432c.009-.012.02-.021.027-.035a.457.457 0 00.025-.054zm-4.588 3.312l-.705-1.201a.548.548 0 10-.946.554l.705 1.204a11.247 11.247 0 01-4.699 1.279v-1.399a.548.548 0 10-1.096 0v1.399a11.243 11.243 0 01-4.642-1.251l.7-1.207a.549.549 0 00-.95-.55l-.698 1.206a11.419 11.419 0 01-3.341-3.323l1.202-.704a.548.548 0 00-.554-.947l-1.204.706a11.247 11.247 0 01-1.28-4.7h1.4a.548.548 0 000-1.096h-1.4c.078-1.62.505-3.203 1.251-4.642l1.207.698a.548.548 0 00.55-.949l-1.206-.698a11.416 11.416 0 013.322-3.34l.705 1.202a.548.548 0 00.946-.554l-.705-1.204a11.242 11.242 0 014.699-1.279v1.399a.548.548 0 001.097 0v-1.399c1.619.077 3.203.504 4.642 1.25l-.7 1.208a.547.547 0 10.949.55l.698-1.208a11.416 11.416 0 013.341 3.324l-1.202.704a.546.546 0 00-.055.912.549.549 0 00.61.034l1.204-.705a11.252 11.252 0 011.278 4.7h-1.398a.548.548 0 000 1.096h1.398a11.248 11.248 0 01-1.25 4.64l-1.207-.698a.549.549 0 00-.55.95l1.206.697a11.415 11.415 0 01-3.322 3.342z" fill="#1C5BFF"/><path d="M29.269 23.619a.548.548 0 00-.548-.549h-5.28a2.511 2.511 0 00-1.893-1.894v-5.278a.548.548 0 00-1.096 0v5.278a2.503 2.503 0 102.99 2.99h5.279a.549.549 0 00.548-.547zM21 25.026a1.407 1.407 0 11-.001-2.815A1.407 1.407 0 0121 25.026z" fill="#1C5BFF"/></symbol><symbol id="icon__tg" viewBox="0 0 32 32"><g filter="url(#filter0_b)"><circle cx="16" cy="16" r="16" fill="#F3F3F3" fill-opacity=".6"/></g><path d="M12.886 18.25l-.248 3.07c.355 0 .508-.133.693-.294l1.664-1.4 3.45 2.222c.632.31 1.077.147 1.248-.512l2.264-9.334c.201-.824-.338-1.145-.954-.944L7.696 15.541c-.908.31-.894.756-.154.958l3.402.931 7.902-4.35c.372-.217.71-.098.432.12l-6.392 5.05z" fill="#1C5BFF"/></symbol><symbol id="icon__time" viewBox="0 0 16 16"><path d="M8 1C4.14 1 1 4.14 1 8s3.14 7 7 7 7-3.14 7-7-3.14-7-7-7zm3.33 10.62a.582.582 0 01-.826 0L7.588 8.705a.58.58 0 01-.171-.412V4.5a.583.583 0 111.166 0v3.55l2.746 2.746a.583.583 0 010 .825z" fill="#fff"/></symbol><symbol id="icon__vk" viewBox="0 0 32 32"><g filter="url(#filter0_b)"><circle cx="16" cy="16" r="16" fill="#F3F3F3" fill-opacity=".6"/></g><path d="M23.304 19.02c-.348-.407-.744-.772-1.127-1.125-.136-.125-.277-.255-.412-.384-.39-.37-.404-.51-.096-.93.214-.29.44-.581.659-.862.198-.255.404-.519.6-.784l.04-.054c.377-.506.765-1.03.972-1.66.054-.168.11-.413-.019-.618-.129-.204-.379-.267-.555-.296a1.565 1.565 0 00-.256-.017l-2.462-.001h-.02c-.372 0-.623.17-.767.521-.137.336-.288.693-.46 1.033-.342.677-.777 1.456-1.406 2.106l-.027.028c-.074.077-.158.165-.22.165a.11.11 0 01-.03-.005c-.131-.05-.219-.356-.215-.5v-.005l-.001-2.77c0-.009 0-.018-.002-.028-.063-.45-.202-.73-.726-.83a.224.224 0 00-.042-.004h-2.56c-.417 0-.647.165-.863.412-.058.066-.18.203-.12.37.062.17.26.205.324.217.32.06.501.25.552.583.09.578.1 1.196.035 1.943a1.598 1.598 0 01-.114.505c-.014.032-.064.136-.114.136-.016 0-.062-.006-.146-.062-.198-.132-.344-.321-.513-.555a12.953 12.953 0 01-1.479-2.67c-.155-.369-.445-.576-.817-.582a75.384 75.384 0 00-1.132-.009c-.386 0-.744.004-1.093.01-.3.006-.506.093-.615.26-.11.168-.102.387.02.653.986 2.131 1.879 3.68 2.897 5.024.713.94 1.428 1.591 2.25 2.048.867.482 1.838.717 2.97.717.127 0 .26-.003.394-.01.657-.03.9-.262.931-.884.015-.319.05-.652.211-.937.102-.18.197-.18.228-.18.06 0 .134.027.214.078.143.09.265.212.366.319.095.1.188.203.282.305.202.22.41.448.63.664.477.473 1.004.681 1.608.636h2.272a.66.66 0 00.534-.333c.143-.245.14-.556-.007-.834a4.474 4.474 0 00-.573-.804z" fill="#1C5BFF"/></symbol><symbol id="icon__whatsapp" viewBox="0 0 31 31"><path class="svg svg__whatsapp svg__whatsapp_outline" d="M3.423 22.457l-1.694 6.68 6.21-2.023 3.904 2.023h8.89l8.373-9.126-.517-10.254-5.174-5.786-3.952-1.13h-8.185L5.304 5.806 1.73 14.837l1.694 7.62z" fill="#47CC3A"/><path class="svg svg__whatsapp svg__whatsapp_fill" d="M.506 30.51l2.1-7.46a14.928 14.928 0 01-2.061-7.586C.545 7.208 7.262.49 15.519.49c8.257 0 14.974 6.718 14.974 14.974 0 8.257-6.717 14.975-14.974 14.975-2.573 0-5.092-.659-7.32-1.91L.506 30.51zm8.086-4.705l.458.28a12.408 12.408 0 006.47 1.814c6.855 0 12.433-5.578 12.433-12.435 0-6.856-5.578-12.434-12.434-12.434-6.856 0-12.434 5.578-12.434 12.434 0 2.39.679 4.71 1.963 6.71l.31.48-1.21 4.296 4.444-1.145z" fill="#fff"/><path class="svg svg__whatsapp svg__whatsapp_inner-icon" d="M11.313 8.495l-.972-.053a1.175 1.175 0 00-.835.286c-.47.409-1.224 1.2-1.455 2.23-.345 1.537.188 3.418 1.568 5.3 1.38 1.881 3.95 4.892 8.498 6.178 1.465.414 2.618.135 3.507-.434a3.136 3.136 0 001.365-1.991l.155-.725a.503.503 0 00-.281-.563l-3.284-1.513a.504.504 0 00-.61.15l-1.289 1.67a.369.369 0 01-.414.124c-.883-.31-3.84-1.549-5.463-4.674a.373.373 0 01.047-.416l1.232-1.425a.503.503 0 00.082-.527L11.75 8.8a.504.504 0 00-.436-.305z" fill="#fff"/></symbol></svg>